<?xml version="1.0" encoding="utf-8"?>
<svg width="512" height="512" viewBox="0 0 512 512" xmlns="http://www.w3.org/2000/svg"
     xmlns:xlink="http://www.w3.org/1999/xlink">
    <defs>

<svg version="1.1" id="svg-1" xmlns="http://www.w3.org/2000/svg" xmlns:xlink="http://www.w3.org/1999/xlink" x="0px" y="0px"
	 viewBox="0 0 127.789 127.789" style="enable-background:new 0 0 127.789 127.789;" xml:space="preserve">
<g>
	<g>
		<g>
			<path style="fill:#93F9EA;" d="M97.188,23.982c0.002,0.002,0.005,0.002,0.008,0.004C94.325,11.121,82.848,1.5,69.118,1.5
				c-15.893,0-28.777,12.885-28.777,28.777c0,11.66,6.939,21.693,16.91,26.215c-0.452-2.025-0.699-4.131-0.699-6.293
				c0-6.625,2.244-12.721,6.006-17.582c1.484,8.385,8.791,14.758,17.604,14.758c9.883,0,17.896-8.012,17.896-17.895
				C98.058,27.561,97.747,25.715,97.188,23.982z"/>
		</g>
		<g>
			<path style="fill:#70D3E0;" d="M56.552,50.199c0-6.625,2.244-12.721,6.006-17.582c1.484,8.385,8.791,14.758,17.604,14.758
				c8.581,0,15.745-6.043,17.484-14.107c-0.128-0.594-0.274-1.182-0.458-1.754c0.002,0.002,0.005,0.002,0.008,0.004
				C94.325,18.654,82.848,9.033,69.118,9.033c-14.607,0-26.664,10.887-28.522,24.986c1.275,9.789,7.467,18.02,16.021,22.156
				c0.039-0.73,0.106-1.453,0.199-2.17C56.65,52.76,56.552,51.492,56.552,50.199z"/>
		</g>
		<path style="fill:#33363A;" d="M98.661,23.664c0-0.002-0.001-0.003-0.001-0.005C95.601,9.95,83.177,0,69.118,0
			C52.423,0,38.841,13.582,38.841,30.277c0,11.854,6.983,22.68,17.791,27.581c0.198,0.09,0.409,0.134,0.619,0.134
			c0.338,0,0.674-0.114,0.946-0.336c0.441-0.358,0.642-0.936,0.518-1.491c-0.44-1.971-0.663-3.979-0.663-5.966
			c0-5.025,1.341-9.828,3.902-14.058c2.74,7.544,9.938,12.733,18.208,12.733c10.694,0,19.396-8.7,19.396-19.395
			C99.558,27.514,99.256,25.558,98.661,23.664z M80.162,45.875c-6.959,0-13.018-4.348-15.358-10.678
			c0.036-0.246,0.019-0.504-0.076-0.753c-2.496-6.524,0.781-13.863,7.306-16.359c2.452-0.939,5.125-0.866,7.524,0.205
			c2.399,1.072,4.237,3.014,5.176,5.47c0.723,1.886,0.667,3.941-0.157,5.786c-0.824,1.847-2.318,3.261-4.207,3.982
			c-2.963,1.138-6.297-0.353-7.432-3.315c-0.849-2.22,0.264-4.715,2.48-5.562c0.773-0.296,1.161-1.163,0.865-1.938
			s-1.165-1.16-1.938-0.865c-3.761,1.438-5.649,5.671-4.21,9.436c1.333,3.482,4.662,5.625,8.187,5.625
			c1.038,0,2.093-0.186,3.119-0.578c2.637-1.009,4.723-2.983,5.874-5.562s1.229-5.448,0.22-8.082
			c-1.225-3.203-3.623-5.737-6.754-7.136c-3.13-1.399-6.617-1.493-9.82-0.27c-6.956,2.662-10.914,9.774-9.901,16.855
			c-3.922,5.255-6.008,11.483-6.008,18.062c0,1.188,0.071,2.382,0.214,3.572c-8.24-4.868-13.425-13.8-13.425-23.494
			C41.841,15.236,54.077,3,69.118,3C81.734,3,92.891,11.896,95.7,24.172c0.012,0.091,0.032,0.182,0.061,0.271
			c0.529,1.64,0.797,3.335,0.797,5.038C96.558,38.521,89.202,45.875,80.162,45.875z"/>
	</g>
	<g>
		<g>
			<g>
				<g>
					<path style="fill:#93F9EA;" d="M113.104,88.848c0,20.676-22.032,37.441-49.209,37.441c-27.178,0-49.209-16.766-49.209-37.441
						c0-20.68,22.031-45.459,49.209-45.459C91.071,43.389,113.104,68.168,113.104,88.848z"/>
				</g>
				<g>
					<path style="fill:#7FE5D8;" d="M113.104,88.848c0,20.676-22.032,37.441-49.209,37.441c-27.178,0-49.209-16.766-49.209-37.441
						c0-20.68,22.031-34.928,49.209-34.928C91.071,53.92,113.104,68.168,113.104,88.848z"/>
				</g>
				<g>
					<path style="fill:#93F9EA;" d="M74.415,102.902c0,1.393-4.691,1.643-10.479,1.643s-10.479-0.25-10.479-1.643
						c0-1.395,4.691-5.037,10.479-5.037S74.415,101.508,74.415,102.902z"/>
				</g>
				<g>
					<path style="fill:#70D3E0;" d="M113.104,88.848c0,20.676-22.032,37.441-49.209,37.441c-27.178,0-49.209-16.766-49.209-37.441
						c0-20.682,6.261,18.34,49.209,18.34S113.104,68.166,113.104,88.848z"/>
				</g>
				<g>
					<path style="fill:#33363A;" d="M63.895,127.789c-27.961,0-50.709-17.469-50.709-38.941c0-21.27,22.619-46.959,50.709-46.959
						s50.709,25.689,50.709,46.959C114.604,110.32,91.855,127.789,63.895,127.789z M63.895,44.889
						c-26.428,0-47.709,24.048-47.709,43.959c0,19.818,21.402,35.941,47.709,35.941s47.709-16.123,47.709-35.941
						C111.604,68.937,90.322,44.889,63.895,44.889z"/>
				</g>
			</g>
			<g>
				<path style="fill:#893015;" d="M47.732,94.754c0,4.449-3.605,8.051-8.052,8.051c-4.447,0-8.051-3.602-8.051-8.051
					c0-4.447,3.604-8.051,8.051-8.051C44.127,86.703,47.732,90.307,47.732,94.754z"/>
			</g>
			<g>
				<circle style="fill:#FFFFFF;" cx="35.676" cy="92.137" r="3.281"/>
			</g>
			<path style="fill:#33363A;" d="M39.681,85.203c-3.234,0-6.093,1.62-7.822,4.086c-0.118,0.157-0.22,0.323-0.318,0.494
				c-0.889,1.45-1.411,3.148-1.411,4.97c0,5.267,4.284,9.551,9.551,9.551s9.552-4.284,9.552-9.551S44.947,85.203,39.681,85.203z
				 M39.681,101.305c-2.721,0-5.058-1.668-6.046-4.034c0.688-0.018,1.524-0.2,2.468-0.396c0.336-0.03,0.659-0.093,0.972-0.19
				c0.819-0.148,1.693-0.267,2.607-0.267c2.412,0,4.571,0.813,6.047,0.853C44.739,99.637,42.401,101.305,39.681,101.305z"/>
			<circle style="fill:#FFFFFF;" cx="35.676" cy="92.138" r="1.78"/>
			<g>
				<path style="fill:#893015;" d="M96.159,94.754c0,4.449-3.604,8.051-8.051,8.051c-4.447,0-8.052-3.602-8.052-8.051
					c0-4.447,3.604-8.051,8.052-8.051C92.555,86.703,96.159,90.307,96.159,94.754z"/>
			</g>
			<g>
				<circle style="fill:#FFFFFF;" cx="84.104" cy="92.137" r="3.28"/>
			</g>
			<path style="fill:#33363A;" d="M88.108,85.203c-3.238,0-6.101,1.623-7.829,4.095c-0.113,0.151-0.211,0.31-0.305,0.474
				c-0.893,1.452-1.417,3.155-1.417,4.981c0,5.267,4.285,9.551,9.552,9.551s9.551-4.284,9.551-9.551S93.375,85.203,88.108,85.203z
				 M88.108,101.305c-2.721,0-5.058-1.668-6.047-4.034c0.688-0.018,1.524-0.2,2.467-0.396c0.337-0.03,0.661-0.093,0.974-0.19
				c0.818-0.148,1.693-0.267,2.606-0.267c2.412,0,4.571,0.813,6.046,0.853C93.166,99.637,90.829,101.305,88.108,101.305z"/>
			<circle style="fill:#FFFFFF;" cx="84.104" cy="92.138" r="1.78"/>
		</g>
		<path style="fill:#33363A;" d="M94.787,105.697c-0.741-0.362-1.642-0.057-2.007,0.688c-0.034,0.07-3.554,6.973-15.432,6.78
			c-0.297-0.005-0.587-0.007-0.871-0.007c-7.436,0-10.932,1.583-12.579,3.104c-1.707-1.587-5.412-3.242-13.456-3.097
			c-0.162,0.003-0.321,0.004-0.479,0.004c-11.367,0-14.806-6.492-14.958-6.792c-0.367-0.739-1.265-1.043-2.003-0.681
			c-0.744,0.364-1.053,1.263-0.688,2.007c0.172,0.35,4.297,8.466,17.648,8.466c0.174,0,0.351-0.001,0.528-0.004
			c9.072-0.159,11.657,2.161,11.883,3.063c-0.017-0.065-0.015-0.103-0.015-0.103l1.536-0.14l1.536,0.14c0,0,0.002,0.037-0.015,0.103
			c0.226-0.901,2.763-3.214,11.885-3.063c13.733,0.228,18.002-8.107,18.175-8.462C95.84,106.96,95.531,106.062,94.787,105.697z"/>
		<g>
			<g>
				<path style="fill:#33363A;" d="M61.427,111.045c-0.398,0-0.795-0.157-1.091-0.47l-1.5-1.588
					c-0.568-0.603-0.541-1.552,0.061-2.121c0.602-0.567,1.551-0.542,2.121,0.061l1.5,1.588c0.568,0.603,0.541,1.552-0.061,2.121
					C62.167,110.909,61.797,111.045,61.427,111.045z"/>
			</g>
			<g>
				<path style="fill:#33363A;" d="M66.362,111.045c-0.37,0-0.74-0.136-1.03-0.409c-0.602-0.569-0.629-1.519-0.061-2.121l1.5-1.588
					c0.571-0.604,1.521-0.627,2.121-0.061c0.602,0.569,0.629,1.519,0.061,2.121l-1.5,1.588
					C67.157,110.888,66.76,111.045,66.362,111.045z"/>
			</g>
		</g>
		<g>
			<g>
				<path style="fill:#33363A;" d="M49.029,82.959c-0.266,0-0.533-0.07-0.776-0.218l-4.674-2.834
					c-0.709-0.429-0.935-1.352-0.505-2.06c0.428-0.71,1.352-0.935,2.06-0.505l4.674,2.834c0.709,0.429,0.935,1.352,0.505,2.06
					C50.031,82.702,49.536,82.959,49.029,82.959z"/>
			</g>
			<g>
				<path style="fill:#33363A;" d="M78.76,82.959c-0.507,0-1.002-0.257-1.283-0.723c-0.43-0.708-0.204-1.631,0.505-2.06l4.674-2.834
					c0.706-0.43,1.631-0.205,2.06,0.505c0.43,0.708,0.204,1.631-0.505,2.06l-4.674,2.834C79.293,82.889,79.025,82.959,78.76,82.959z
					"/>
			</g>
		</g>
	</g>
</g>
<g>
</g>
<g>
</g>
<g>
</g>
<g>
</g>
<g>
</g>
<g>
</g>
<g>
</g>
<g>
</g>
<g>
</g>
<g>
</g>
<g>
</g>
<g>
</g>
<g>
</g>
<g>
</g>
<g>
</g>
</svg>

<svg version="1.1" id="svg-2" xmlns="http://www.w3.org/2000/svg" xmlns:xlink="http://www.w3.org/1999/xlink" x="0px" y="0px"
	 viewBox="0 0 127.6 127.6" style="enable-background:new 0 0 127.6 127.6;" xml:space="preserve">
<g>
	<g>
		<path style="fill:#FFECD2;" d="M115.06,91.168c0,16.236-22.949,34.932-51.26,34.932s-51.26-18.695-51.26-34.932
			c0-16.238,22.949-29.402,51.26-29.402S115.06,74.93,115.06,91.168z"/>
	</g>
	<g>
		<path style="fill:#EFC99A;" d="M115.06,91.168c0,16.236-22.949,29.266-51.26,29.266s-51.26-13.029-51.26-29.266
			c0-16.238,22.949-29.402,51.26-29.402S115.06,74.93,115.06,91.168z"/>
	</g>
	<g>
		<path style="fill:#33363A;" d="M63.8,127.6c-29.713,0-52.76-19.584-52.76-36.432c0-17.04,23.668-30.902,52.76-30.902
			s52.76,13.862,52.76,30.902C116.56,108.016,93.513,127.6,63.8,127.6z M63.8,63.266c-27.438,0-49.76,12.517-49.76,27.902
			c0,15.143,22.196,33.432,49.76,33.432s49.76-18.289,49.76-33.432C113.56,75.782,91.237,63.266,63.8,63.266z"/>
	</g>
	<g>
		<g>
			<path style="fill:#E5B076;" d="M113.009,79.612c0,20.676-22.031,37.441-49.209,37.441s-49.209-16.766-49.209-37.441
				c0-20.68,22.031-45.459,49.209-45.459S113.009,58.932,113.009,79.612z"/>
		</g>
		<g>
			<path style="fill:#D3964C;" d="M113.009,79.612c0,20.676-22.031,37.441-49.209,37.441s-49.209-16.766-49.209-37.441
				c0-20.68,22.031-34.928,49.209-34.928S113.009,58.932,113.009,79.612z"/>
		</g>
		<g>
			<path style="fill:#E5B076;" d="M74.278,83.569c0,1.393-4.691,1.643-10.478,1.643c-5.787,0-10.479-0.25-10.479-1.643
				c0-1.395,4.691-5.037,10.479-5.037C69.587,78.531,74.278,82.174,74.278,83.569z"/>
		</g>
		<g>
			<path style="fill:#C4833D;" d="M113.009,79.612c0,20.676-22.031,37.441-49.209,37.441s-49.209-16.766-49.209-37.441
				c0-20.682,6.262,18.34,49.209,18.34S113.009,58.93,113.009,79.612z"/>
		</g>
		<g>
			<path style="fill:#33363A;" d="M63.8,118.553c-27.961,0-50.709-17.469-50.709-38.941c0-21.27,22.619-46.959,50.709-46.959
				s50.709,25.689,50.709,46.959C114.509,101.084,91.761,118.553,63.8,118.553z M63.8,35.653c-26.428,0-47.709,24.048-47.709,43.959
				c0,19.818,21.402,35.941,47.709,35.941s47.709-16.123,47.709-35.941C111.509,59.7,90.228,35.653,63.8,35.653z"/>
		</g>
	</g>
	<g>
		<g>
			<g>
				<g>
					<g>
						<g>
							<path style="fill:#D3964C;" d="M21.11,34.031c-0.124,12.322,4.217,22.303,11.009,27.771
								c6.933-8.355,11.495-20.207,11.619-32.531C43.863,16.948,39.522,6.967,32.729,1.5C25.798,9.854,21.235,21.707,21.11,34.031z"
								/>
						</g>
						<g>
							<path style="fill:#C4833D;" d="M32.729,1.5C25.798,9.854,21.235,21.707,21.11,34.031
								c-0.124,12.322,4.217,22.303,11.009,27.771L32.729,1.5z"/>
						</g>
						<g>
							<path style="fill:#33363A;" d="M26.4,56.705c-0.503,0-0.995-0.254-1.278-0.714c-3.69-6-5.596-13.599-5.511-21.976
								c0.123-12.257,4.484-24.458,11.964-33.474c0.521-0.631,1.454-0.725,2.095-0.211c7.479,6.019,11.695,16.572,11.569,28.956
								c-0.075,7.313-1.688,14.76-4.665,21.537c-0.333,0.757-1.219,1.104-1.977,0.77c-0.758-0.333-1.103-1.218-0.77-1.977
								c2.815-6.409,4.341-13.45,4.411-20.361c0.109-10.797-3.267-20.025-9.311-25.604c-6.463,8.362-10.206,19.348-10.317,30.395
								c-0.079,7.811,1.672,14.855,5.065,20.373c0.435,0.706,0.214,1.63-0.491,2.063C26.94,56.634,26.668,56.705,26.4,56.705z"/>
						</g>
					</g>
				</g>
			</g>
			<g>
				<g>
					<g>
						<g>
							<path style="fill:#66310E;" d="M26.919,40.11c-0.059,5.826,1.994,10.541,5.204,13.127c3.276-3.949,5.433-9.551,5.491-15.375
								c0.06-5.826-1.992-10.543-5.203-13.127C29.135,28.684,26.978,34.285,26.919,40.11z"/>
						</g>
						<g>
							<path style="fill:#89410B;" d="M32.411,24.735c-3.276,3.949-5.434,9.551-5.492,15.375
								c-0.059,5.826,1.994,10.541,5.204,13.127L32.411,24.735z"/>
						</g>
						<g>
							<path style="fill:#33363A;" d="M32.122,54.737c-0.33,0-0.663-0.108-0.94-0.332c-3.724-3-5.824-8.216-5.763-14.31l0,0
								c0.061-5.971,2.188-11.919,5.838-16.318c0.521-0.631,1.455-0.726,2.095-0.211c3.725,2.998,5.825,8.214,5.763,14.312
								c-0.061,5.971-2.188,11.919-5.837,16.317C32.982,54.552,32.554,54.737,32.122,54.737z M26.919,40.11l1.5,0.015
								c-0.045,4.413,1.253,8.354,3.524,10.88c2.618-3.716,4.123-8.423,4.171-13.157c0.045-4.416-1.252-8.356-3.523-10.88
								c-2.619,3.716-4.124,8.424-4.172,13.157L26.919,40.11z"/>
						</g>
					</g>
				</g>
			</g>
		</g>
		<g>
			<g>
				<g>
					<g>
						<g>
							<path style="fill:#D3964C;" d="M106.489,34.031c0.124,12.322-4.217,22.303-11.009,27.771
								c-6.933-8.355-11.495-20.207-11.619-32.531C83.736,16.948,88.078,6.967,94.871,1.5
								C101.802,9.854,106.365,21.707,106.489,34.031z"/>
						</g>
						<g>
							<path style="fill:#C4833D;" d="M94.871,1.5c6.931,8.353,11.494,20.207,11.618,32.531
								c0.124,12.322-4.217,22.303-11.009,27.771L94.871,1.5z"/>
						</g>
						<g>
							<path style="fill:#33363A;" d="M101.2,56.705c-0.269,0-0.54-0.071-0.785-0.223c-0.705-0.434-0.926-1.357-0.491-2.063
								c3.394-5.518,5.145-12.563,5.065-20.372c-0.111-11.048-3.854-22.033-10.317-30.396c-6.044,5.579-9.42,14.808-9.311,25.604
								c0.07,6.911,1.596,13.952,4.411,20.361c0.333,0.759-0.012,1.644-0.77,1.977c-0.758,0.336-1.644-0.012-1.977-0.77
								c-2.978-6.777-4.59-14.225-4.665-21.537C82.235,16.904,86.452,6.35,93.931,0.331c0.641-0.514,1.572-0.42,2.095,0.211
								c7.479,9.016,11.841,21.217,11.964,33.475c0.085,8.376-1.82,15.975-5.511,21.975C102.195,56.451,101.703,56.705,101.2,56.705
								z"/>
						</g>
					</g>
				</g>
			</g>
			<g>
				<g>
					<g>
						<g>
							<path style="fill:#66310E;" d="M100.681,40.11c0.059,5.826-1.994,10.541-5.204,13.127c-3.276-3.949-5.433-9.551-5.491-15.375
								c-0.06-5.826,1.992-10.543,5.203-13.127C98.465,28.684,100.622,34.285,100.681,40.11z"/>
						</g>
						<g>
							<path style="fill:#89410B;" d="M95.189,24.735c3.276,3.949,5.434,9.551,5.492,15.375c0.059,5.826-1.994,10.541-5.204,13.127
								L95.189,24.735z"/>
						</g>
						<g>
							<path style="fill:#33363A;" d="M95.478,54.737c-0.432,0-0.859-0.185-1.155-0.542c-3.649-4.398-5.776-10.347-5.837-16.318
								c-0.063-6.097,2.038-11.313,5.763-14.311c0.64-0.515,1.572-0.42,2.095,0.211c3.65,4.399,5.777,10.348,5.838,16.318l0,0
								c0.062,6.094-2.039,11.31-5.763,14.31C96.141,54.628,95.808,54.737,95.478,54.737z M95.009,26.967
								c-2.271,2.523-3.568,6.464-3.523,10.879c0.048,4.735,1.553,9.442,4.171,13.158c2.271-2.525,3.569-6.467,3.524-10.88
								C99.133,35.391,97.628,30.683,95.009,26.967z"/>
						</g>
					</g>
				</g>
			</g>
		</g>
	</g>
	<path style="fill:#33363A;" d="M73.437,94.565c-0.828,0-1.5,0.672-1.5,1.5c0,1.428-1.162,2.59-2.59,2.59H67.89
		c-1.428,0-2.59-1.162-2.59-2.59V94.61c0-0.073-0.011-0.143-0.021-0.213l3.111-1.557c0.622-0.312,0.949-1.01,0.789-1.687
		s-0.765-1.155-1.46-1.155h-7.837c-0.695,0-1.3,0.479-1.46,1.155s0.167,1.375,0.789,1.687l3.11,1.557
		c-0.01,0.07-0.021,0.14-0.021,0.213v1.455c0,1.428-1.162,2.59-2.59,2.59h-1.457c-1.428,0-2.59-1.162-2.59-2.59
		c0-0.828-0.672-1.5-1.5-1.5s-1.5,0.672-1.5,1.5c0,3.082,2.508,5.59,5.59,5.59h1.457c1.615,0,3.068-0.693,4.09-1.792
		c1.021,1.099,2.475,1.792,4.09,1.792h1.457c3.082,0,5.59-2.508,5.59-5.59C74.937,95.237,74.265,94.565,73.437,94.565z"/>
	<g>
		<path style="fill:#89410B;" d="M47.638,84.428c0,4.449-3.605,8.051-8.053,8.051c-4.445,0-8.051-3.602-8.051-8.051
			c0-4.447,3.605-8.051,8.051-8.051C44.032,76.377,47.638,79.981,47.638,84.428z"/>
	</g>
	<g>
		<circle style="fill:#FFFFFF;" cx="35.582" cy="81.811" r="3.28"/>
	</g>
	<path style="fill:#33363A;" d="M39.585,74.877c-3.243,0-6.11,1.628-7.837,4.107c-0.106,0.143-0.198,0.294-0.288,0.448
		c-0.898,1.456-1.426,3.163-1.426,4.996c0,5.267,4.284,9.551,9.551,9.551c5.268,0,9.553-4.284,9.553-9.551
		S44.853,74.877,39.585,74.877z M39.585,90.979c-2.721,0-5.058-1.668-6.046-4.034c0.68-0.018,1.509-0.201,2.437-0.393
		c0.357-0.03,0.701-0.097,1.032-0.202c0.809-0.144,1.675-0.258,2.577-0.258c2.413,0,4.572,0.813,6.048,0.853
		C44.644,89.311,42.307,90.979,39.585,90.979z"/>
	<circle style="fill:#FFFFFF;" cx="35.581" cy="81.812" r="1.78"/>
	<g>
		<path style="fill:#89410B;" d="M96.066,84.428c0,4.449-3.605,8.051-8.051,8.051c-4.447,0-8.053-3.602-8.053-8.051
			c0-4.447,3.605-8.051,8.053-8.051C92.46,76.377,96.066,79.981,96.066,84.428z"/>
	</g>
	<g>
		<circle style="fill:#FFFFFF;" cx="84.01" cy="81.811" r="3.28"/>
	</g>
	<path style="fill:#33363A;" d="M88.015,74.877c-3.242,0-6.108,1.626-7.835,4.102c-0.108,0.146-0.202,0.299-0.294,0.457
		c-0.897,1.455-1.424,3.161-1.424,4.992c0,5.267,4.285,9.551,9.553,9.551c5.267,0,9.551-4.284,9.551-9.551
		S93.281,74.877,88.015,74.877z M88.015,90.979c-2.721,0-5.059-1.668-6.048-4.034c0.689-0.018,1.526-0.2,2.47-0.396
		c0.335-0.03,0.657-0.093,0.968-0.189c0.82-0.148,1.695-0.268,2.61-0.268c2.412,0,4.571,0.813,6.046,0.853
		C93.073,89.311,90.735,90.979,88.015,90.979z"/>
	<circle style="fill:#FFFFFF;" cx="84.009" cy="81.812" r="1.78"/>
	<g>
		<g>
			<polygon style="fill:#E5B076;" points="84.327,44.19 77.62,29.262 71.208,32.145 63.8,24.735 56.391,32.145 49.98,29.262 
				43.273,44.19 58.197,50.897 58.53,50.155 63.8,55.424 69.069,50.156 69.402,50.897 			"/>
		</g>
		<g>
			<polygon style="fill:#D3964C;" points="71.208,44.645 63.8,37.237 56.391,44.645 49.98,41.764 47.946,46.289 58.197,50.897 
				58.53,50.155 63.8,55.424 69.069,50.156 69.402,50.897 79.653,46.289 77.62,41.764 			"/>
		</g>
		<g>
			<path style="fill:#33363A;" d="M84.328,45.69c-0.572,0-1.119-0.329-1.369-0.885l-6.092-13.56l-5.044,2.268
				c-0.567,0.256-1.235,0.132-1.676-0.308l-6.348-6.35l-6.349,6.35c-0.441,0.439-1.109,0.563-1.676,0.308l-5.043-2.268l-6.092,13.56
				c-0.34,0.755-1.226,1.095-1.983,0.753c-0.755-0.34-1.093-1.228-0.753-1.983l6.707-14.928c0.163-0.362,0.464-0.646,0.836-0.787
				c0.37-0.143,0.783-0.13,1.147,0.034l5.467,2.458l6.678-6.678c0.281-0.281,0.663-0.439,1.061-0.439l0,0
				c0.397,0,0.779,0.158,1.061,0.439l6.677,6.678l5.468-2.458c0.362-0.164,0.775-0.177,1.147-0.034
				c0.372,0.142,0.673,0.425,0.836,0.787l6.707,14.928c0.34,0.756,0.002,1.644-0.753,1.983C84.742,45.648,84.533,45.69,84.328,45.69
				z"/>
		</g>
	</g>
</g>
<g>
</g>
<g>
</g>
<g>
</g>
<g>
</g>
<g>
</g>
<g>
</g>
<g>
</g>
<g>
</g>
<g>
</g>
<g>
</g>
<g>
</g>
<g>
</g>
<g>
</g>
<g>
</g>
<g>
</g>
</svg>

 <svg version="1.1" id="svg-3" xmlns="http://www.w3.org/2000/svg" xmlns:xlink="http://www.w3.org/1999/xlink" x="0px" y="0px"
	 viewBox="0 0 128.169 128.169" style="enable-background:new 0 0 128.169 128.169;" xml:space="preserve">
<g>
	<g>
		<path style="fill:#1A93D6;" d="M84.808,126.005c1.508-21.699,5.67-31.811,11.326-37.834H32.035
			c5.658,6.023,9.818,16.135,11.32,37.834H84.808z"/>
	</g>
	<g>
		<path style="fill:#FFFFFF;" d="M74.867,126.005c0.784-21.699,2.95-31.811,5.894-37.834h-33.35
			c2.943,6.023,5.108,16.135,5.89,37.834H74.867z"/>
	</g>
	<g>
		<path style="fill:#D9E7E8;" d="M51.759,105.22c3.939,0.795,8.069,1.219,12.326,1.219s8.387-0.426,12.327-1.219
			c1.077-8.275,2.57-13.41,4.349-17.049h-33.35C49.189,91.81,50.683,96.944,51.759,105.22z"/>
	</g>
	<g>
		<path style="fill:#33363A;" d="M84.81,127.505c-0.035,0-0.07-0.001-0.105-0.004c-0.827-0.058-1.45-0.773-1.393-1.6
			c1.214-17.477,4.218-28.87,9.63-36.23H35.228c5.413,7.359,8.415,18.753,9.624,36.23c0.058,0.826-0.566,1.543-1.393,1.6
			c-0.813,0.082-1.543-0.565-1.6-1.393c-1.308-18.881-4.674-30.264-10.918-36.91c-0.409-0.437-0.521-1.074-0.283-1.623
			c0.238-0.549,0.778-0.904,1.377-0.904h64.099c0.598,0,1.139,0.355,1.377,0.904c0.237,0.549,0.126,1.187-0.283,1.622
			c-6.243,6.648-9.611,18.032-10.924,36.911C86.249,126.899,85.59,127.505,84.81,127.505z"/>
	</g>
	<g>
		<g>
			<path style="fill:#77D6FC;" d="M113.294,60.212c0,20.676-22.032,37.441-49.209,37.441c-27.178,0-49.209-16.766-49.209-37.441
				c0-20.68,22.031-45.459,49.209-45.459C91.262,14.753,113.294,39.532,113.294,60.212z"/>
		</g>
		<g>
			<path style="fill:#42B1E8;" d="M113.294,60.212c0,20.676-22.032,37.441-49.209,37.441c-27.178,0-49.209-16.766-49.209-37.441
				c0-20.68,22.031-34.928,49.209-34.928C91.262,25.284,113.294,39.532,113.294,60.212z"/>
		</g>
		<g>
			<path style="fill:#77D6FC;" d="M74.563,70.849c0,1.393-4.691,1.643-10.479,1.643s-10.479-0.25-10.479-1.643
				c0-1.395,4.691-5.037,10.479-5.037S74.563,69.454,74.563,70.849z"/>
		</g>
		<g>
			<path style="fill:#1A93D6;" d="M113.294,60.212c0,20.676-22.032,37.941-49.209,37.941c-27.178,0-49.209-17.266-49.209-37.941
				c0-20.682,6.261,18.34,49.209,18.34C107.032,78.552,113.294,39.53,113.294,60.212z"/>
		</g>
		<g>
			<path style="fill:#33363A;" d="M37.868,93.392c-0.218,0-0.438-0.047-0.648-0.147c-14.931-7.171-23.844-19.519-23.844-33.032
				c0-21.27,22.619-46.959,50.709-46.959s50.709,25.689,50.709,46.959c0,13.515-8.914,25.862-23.844,33.03
				c-0.749,0.358-1.643,0.044-2.002-0.703c-0.358-0.747-0.044-1.644,0.703-2.002c13.865-6.656,22.143-17.993,22.143-30.325
				c0-19.911-21.281-43.959-47.709-43.959S16.376,40.301,16.376,60.212c0,12.332,8.277,23.669,22.143,30.327
				c0.747,0.359,1.062,1.255,0.703,2.002C38.963,93.078,38.427,93.392,37.868,93.392z"/>
		</g>
	</g>
	<g>
		<path style="fill:#465652;" d="M47.923,65.028c0,4.449-3.605,8.051-8.053,8.051c-4.446,0-8.051-3.602-8.051-8.051
			c0-4.447,3.605-8.051,8.051-8.051C44.317,56.977,47.923,60.581,47.923,65.028z"/>
	</g>
	<g>
		<circle style="fill:#FFFFFF;" cx="35.867" cy="62.411" r="3.281"/>
	</g>
	<path style="fill:#33363A;" d="M39.87,55.477c-3.24,0-6.104,1.625-7.831,4.099c-0.111,0.149-0.207,0.305-0.3,0.466
		c-0.894,1.453-1.42,3.157-1.42,4.985c0,5.267,4.284,9.551,9.551,9.551c5.268,0,9.553-4.284,9.553-9.551S45.138,55.477,39.87,55.477
		z M39.87,71.579c-2.721,0-5.058-1.668-6.046-4.034c0.688-0.018,1.525-0.2,2.468-0.396c0.336-0.03,0.66-0.093,0.972-0.19
		c0.818-0.148,1.693-0.267,2.606-0.267c2.413,0,4.572,0.813,6.048,0.853C44.929,69.911,42.592,71.579,39.87,71.579z"/>
	<circle style="fill:#FFFFFF;" cx="35.866" cy="62.412" r="1.78"/>
	<g>
		<path style="fill:#465652;" d="M96.35,65.028c0,4.449-3.604,8.051-8.051,8.051c-4.447,0-8.052-3.602-8.052-8.051
			c0-4.447,3.604-8.051,8.052-8.051C92.745,56.977,96.35,60.581,96.35,65.028z"/>
	</g>
	<g>
		<circle style="fill:#FFFFFF;" cx="84.294" cy="62.411" r="3.28"/>
	</g>
	<path style="fill:#33363A;" d="M88.299,55.477c-3.238,0-6.101,1.623-7.829,4.095c-0.113,0.151-0.211,0.311-0.306,0.475
		c-0.893,1.452-1.417,3.155-1.417,4.981c0,5.267,4.285,9.551,9.552,9.551s9.551-4.284,9.551-9.551S93.565,55.477,88.299,55.477z
		 M88.299,71.579c-2.721,0-5.058-1.668-6.047-4.034c0.688-0.018,1.525-0.2,2.469-0.396c0.335-0.03,0.658-0.093,0.97-0.189
		c0.819-0.148,1.694-0.268,2.609-0.268c2.412,0,4.571,0.813,6.046,0.853C93.357,69.911,91.02,71.579,88.299,71.579z"/>
	<circle style="fill:#FFFFFF;" cx="84.294" cy="62.412" r="1.78"/>
	<g>
		<g>
			<path style="fill:#D9E7E8;" d="M82.419,80.395c0,6.256-8.209,11.33-18.334,11.33s-18.332-5.074-18.332-11.33
				c0-6.258,8.207-5.861,18.332-5.861S82.419,74.138,82.419,80.395z"/>
		</g>
		<g>
			<path style="fill:#FFFFFF;" d="M82.419,80.395c0,6.256-8.209,11.33-18.334,11.33s-18.332-5.074-18.332-11.33
				c0-6.258,8.207-1.5,18.332-1.5S82.419,74.138,82.419,80.395z"/>
		</g>
		<g>
			<path style="fill:#33363A;" d="M64.085,93.226c-11.121,0-19.832-5.636-19.832-12.83c0-1.823,0.581-3.327,1.727-4.471
				c2.93-2.924,8.866-2.907,16.398-2.894l1.707,0.003l1.707-0.003c7.526-0.016,13.47-0.03,16.4,2.894
				c1.146,1.144,1.727,2.647,1.727,4.471C83.919,87.59,75.207,93.226,64.085,93.226z M60.822,76.029
				c-5.692,0-10.844,0.144-12.724,2.02c-0.577,0.575-0.846,1.321-0.846,2.347c0,5.328,7.708,9.83,16.832,9.83
				c9.125,0,16.834-4.502,16.834-9.83c0-1.025-0.269-1.771-0.846-2.347c-2.049-2.045-7.984-2.029-14.274-2.018l-1.714,0.003
				l-1.714-0.003C61.853,76.03,61.334,76.029,60.822,76.029z"/>
		</g>
	</g>
	<g>
		<path style="fill:#FFFFFF;" d="M21.232,2.161c-4.703,0-8.517,12.098-8.517,27.021c0,1.697,0.053,3.357,0.146,4.969
			c-4.359-4.738-8.594-7.291-10.45-5.957c-2.407,1.731,0.094,9.324,5.583,16.959c4.764,6.627,10.208,11.1,13.141,11.041
			c0.032,0.002,0.064,0.008,0.097,0.008c4.704,0,8.517-12.098,8.517-27.019C29.749,14.259,25.937,2.161,21.232,2.161z"/>
	</g>
	<g>
		<path style="fill:#D9E7E8;" d="M2.932,36.284c1.115,2.693,2.839,5.773,5.064,8.869c4.764,6.627,10.208,11.1,13.141,11.041
			c0.032,0.002,0.064,0.008,0.097,0.008c4.257,0,7.784-9.91,8.415-22.853c-0.631-12.945-4.158-22.854-8.415-22.854
			c-4.246,0-7.766,9.861-8.409,22.76c0.014,0.297,0.021,0.601,0.039,0.896c-0.025-0.027-0.05-0.053-0.074-0.078
			c-0.046,1.127-0.072,2.275-0.072,3.441c0,1.699,0.053,3.359,0.146,4.971C8.868,38.142,4.983,35.645,2.932,36.284z"/>
	</g>
	<path style="fill:#33363A;" d="M21.232,0.661c-6.576,0-10.017,14.348-10.017,28.521c0,0.409,0.003,0.821,0.009,1.235
		c-2.968-2.665-7.01-5.363-9.688-3.441c-1.23,0.885-2.354,2.982-0.719,7.952c1.102,3.345,3.218,7.286,5.96,11.101
		c4.187,5.823,10.213,11.663,14.301,11.666c0.054,0.004,0.117,0.007,0.154,0.007c6.576,0,10.017-14.347,10.017-28.52
		C31.249,15.009,27.809,0.661,21.232,0.661z M21.279,54.701c-0.021-0.002-0.041-0.003-0.053-0.004
		c-0.03-0.002-0.061-0.003-0.091-0.003c-0.019,0-0.038,0.001-0.061,0.001c-1.827,0-6.684-3.213-11.862-10.418
		c-2.568-3.571-4.538-7.225-5.546-10.287c-1.054-3.202-0.616-4.408-0.38-4.578c0.632-0.449,3.757,0.734,8.185,5.452v2.184
		c0,3.032,2.468,5.5,5.5,5.5h0.744c3.032,0,5.5-2.468,5.5-5.5v-3.115c0-0.828-0.672-1.5-1.5-1.5s-1.5,0.672-1.5,1.5v3.115
		c0,1.379-1.121,2.5-2.5,2.5h-0.744c-1.379,0-2.5-1.121-2.5-2.5v-3.115c0-0.228-0.055-0.442-0.146-0.635
		c-0.068-1.385-0.11-2.767-0.11-4.115c0-15.579,4.155-25.521,7.017-25.521s7.017,9.942,7.017,25.521
		C28.249,44.676,24.139,54.594,21.279,54.701z"/>
	<g>
		<path style="fill:#FFFFFF;" d="M106.937,2.161c4.703,0,8.517,12.098,8.517,27.021c0,1.697-0.052,3.357-0.146,4.969
			c4.358-4.738,8.593-7.291,10.449-5.957c2.407,1.731-0.094,9.324-5.583,16.959c-4.763,6.627-10.208,11.1-13.14,11.041
			c-0.033,0.002-0.064,0.008-0.098,0.008c-4.703,0-8.516-12.098-8.516-27.019C98.421,14.259,102.233,2.161,106.937,2.161z"/>
	</g>
	<g>
		<path style="fill:#D9E7E8;" d="M125.237,36.284c-1.115,2.693-2.838,5.773-5.063,8.869c-4.763,6.627-10.208,11.1-13.14,11.041
			c-0.033,0.002-0.064,0.008-0.098,0.008c-4.256,0-7.783-9.91-8.415-22.853c0.632-12.945,4.159-22.854,8.415-22.854
			c4.246,0,7.766,9.861,8.41,22.76c-0.014,0.297-0.022,0.601-0.039,0.896c0.024-0.027,0.049-0.053,0.074-0.078
			c0.045,1.127,0.071,2.275,0.071,3.441c0,1.699-0.052,3.359-0.146,4.971C119.302,38.142,123.187,35.645,125.237,36.284z"/>
	</g>
	<path style="fill:#33363A;" d="M126.632,26.976c-2.675-1.926-6.72,0.776-9.688,3.441c0.006-0.413,0.009-0.825,0.009-1.235
		c0-14.174-3.44-28.521-10.017-28.521c-6.575,0-10.016,14.348-10.016,28.521c0,14.173,3.44,28.52,10.016,28.52
		c0.021,0,0.088-0.004,0.137-0.007c0.006,0,0.011,0,0.016,0c4.088-0.001,10.117-5.842,14.303-11.666
		c2.742-3.814,4.858-7.756,5.96-11.101C128.987,29.959,127.863,27.861,126.632,26.976z M124.502,33.99
		c-1.008,3.063-2.978,6.716-5.546,10.288c-5.179,7.205-10.034,10.417-11.861,10.417c-0.011,0-0.021,0-0.03-0.001
		c-0.042,0-0.079,0.001-0.118,0.003c-0.011,0-0.033,0.002-0.055,0.004c-2.859-0.104-6.971-10.022-6.971-25.519
		c0-15.579,4.155-25.521,7.016-25.521c2.861,0,7.017,9.942,7.017,25.521c0,1.356-0.042,2.736-0.109,4.113
		c-0.092,0.194-0.147,0.408-0.147,0.637v3.115c0,1.379-1.121,2.5-2.5,2.5h-0.744c-1.379,0-2.5-1.121-2.5-2.5v-3.115
		c0-0.828-0.672-1.5-1.5-1.5s-1.5,0.672-1.5,1.5v3.115c0,3.032,2.468,5.5,5.5,5.5h0.744c3.032,0,5.5-2.468,5.5-5.5v-2.183
		c4.428-4.718,7.562-5.901,8.184-5.453C125.118,29.582,125.556,30.788,124.502,33.99z"/>
	<g>
		<circle style="fill:#FFFFFF;" cx="64.085" cy="44.198" r="5.307"/>
	</g>
	<g>
		<path style="fill:#D9E7E8;" d="M58.778,44.198c0-2.93,2.375-5.307,5.307-5.307c2.932,0,5.307,2.377,5.307,5.307"/>
	</g>
	<g>
		<path style="fill:#33363A;" d="M64.085,51.005c-3.753,0-6.807-3.054-6.807-6.807s3.054-6.807,6.807-6.807s6.807,3.054,6.807,6.807
			S67.838,51.005,64.085,51.005z M64.085,40.392c-2.099,0-3.807,1.708-3.807,3.807s1.708,3.807,3.807,3.807s3.807-1.708,3.807-3.807
			S66.184,40.392,64.085,40.392z"/>
	</g>
	<g>
		<path style="fill:#33363A;" d="M69.392,45.698c-0.828,0-1.5-0.672-1.5-1.5c0-2.099-1.708-3.807-3.807-3.807
			s-3.807,1.708-3.807,3.807c0,0.828-0.672,1.5-1.5,1.5s-1.5-0.672-1.5-1.5c0-3.753,3.054-6.807,6.807-6.807
			s6.807,3.054,6.807,6.807C70.892,45.026,70.22,45.698,69.392,45.698z"/>
	</g>
</g>
<g>
</g>
<g>
</g>
<g>
</g>
<g>
</g>
<g>
</g>
<g>
</g>
<g>
</g>
<g>
</g>
<g>
</g>
<g>
</g>
<g>
</g>
<g>
</g>
<g>
</g>
<g>
</g>
<g>
</g>
</svg>

<svg version="1.1" id="svg-4" xmlns="http://www.w3.org/2000/svg" xmlns:xlink="http://www.w3.org/1999/xlink" x="0px" y="0px"
	 viewBox="0 0 126.334 126.334" style="enable-background:new 0 0 126.334 126.334;" xml:space="preserve">
<g>
	<g>
		<circle style="fill:#4E5154;" cx="63.167" cy="63.166" r="61.667"/>
	</g>
	<g>
		<ellipse style="fill:#33363A;" cx="63.167" cy="63.166" rx="61.667" ry="47.232"/>
	</g>
	<g>
		<path style="fill:#FFDB80;" d="M100.578,14.155C90.201,6.223,77.238,1.5,63.168,1.5c-14.072,0-27.035,4.723-37.412,12.656V64.62
			h74.822V14.155z"/>
	</g>
	<g>
		<path style="fill:#FFBE08;" d="M100.578,25.627c-10.377-6.076-23.34-9.693-37.41-9.693c-14.072,0-27.035,3.617-37.412,9.693V64.62
			h74.822V25.627z"/>
	</g>
	<g>
		<path style="fill:#33363A;" d="M64.652,25.096h-2.971c-13.252,0-23.996,10.746-23.996,23.999V64.62h50.963V49.095
			C88.648,35.842,77.904,25.096,64.652,25.096z"/>
	</g>
	<g>
		<path style="fill:#FFFFFF;" d="M1.5,63.166c0,34.061,27.609,61.668,61.668,61.668c34.057,0,61.666-27.607,61.666-61.668H1.5z"/>
	</g>
	<g>
		<path style="fill:#D8E5EA;" d="M63.168,110.398c34.057,0,61.666-21.148,61.666-47.232H1.5
			C1.5,89.25,29.109,110.398,63.168,110.398z"/>
	</g>
	<path style="fill:#33363A;" d="M63.168,0C28.337,0,0,28.336,0,63.166c0,34.831,28.337,63.168,63.168,63.168
		c34.83,0,63.166-28.337,63.166-63.168C126.334,28.336,97.998,0,63.168,0z M63.168,3c32.673,0,59.327,26.183,60.128,58.666H3.038
		C3.839,29.183,30.494,3,63.168,3z M63.168,123.334c-32.674,0-59.329-26.184-60.13-58.668h120.258
		C122.495,97.15,95.841,123.334,63.168,123.334z"/>
	<g>
		<g>
			<path style="fill:#A7BBC1;" d="M75.019,57.014c6.549,6.549,6.549,17.161,0,23.709c-6.545,6.549-17.16,6.549-23.705,0
				c-6.547-6.548-6.547-17.16,0-23.709C57.859,50.467,68.475,50.467,75.019,57.014z"/>
		</g>
		<g>
			<path style="fill:#FFFFFF;" d="M75.019,51.312c6.549,6.549,6.549,17.162,0,23.709c-6.545,6.547-17.16,6.547-23.705,0
				c-6.547-6.547-6.547-17.16,0-23.709C57.859,44.767,68.475,44.767,75.019,51.312z"/>
		</g>
		<g>
			<path style="fill:#D8E5EA;" d="M51.314,75.021c-6.547-6.547-6.547-17.16,0-23.709c6.545-6.546,17.16-6.546,23.705,0"/>
		</g>
		<g>
			<path style="fill:#33363A;" d="M63.167,81.432c-4.878,0-9.465-1.9-12.914-5.35c-7.12-7.12-7.12-18.708,0-25.83
				c3.449-3.449,8.035-5.349,12.914-5.349s9.464,1.899,12.913,5.349l0,0l0,0c3.451,3.451,5.351,8.038,5.351,12.916
				c0,4.878-1.9,9.465-5.351,12.915C72.632,79.532,68.045,81.432,63.167,81.432z M63.167,47.903c-4.077,0-7.91,1.587-10.792,4.47
				c-5.951,5.953-5.951,15.637,0,21.588c2.882,2.883,6.715,4.471,10.792,4.471s7.91-1.588,10.792-4.471
				c2.884-2.883,4.473-6.716,4.473-10.793c0-4.077-1.588-7.91-4.472-10.794l0,0C71.077,49.491,67.244,47.903,63.167,47.903z"/>
		</g>
	</g>
	<g>
		<g>
			<path style="fill:#FFFFFF;" d="M68.871,68.87c-3.15,3.146-8.256,3.146-11.404,0c-3.148-3.15-3.148-8.255,0-11.403
				c3.148-3.15,8.254-3.148,11.404,0C72.019,60.615,72.019,65.72,68.871,68.87z"/>
		</g>
		<g>
			<path style="fill:#D8E5EA;" d="M57.467,57.467c3.148-3.15,8.254-3.148,11.404,0c3.148,3.148,3.148,8.253,0,11.403"/>
		</g>
		<g>
			<path style="fill:#33363A;" d="M63.168,72.725c-2.449,0-4.898-0.931-6.762-2.793c-3.729-3.73-3.728-9.797,0-13.525
				c1.805-1.807,4.207-2.802,6.761-2.802c0,0,0,0,0.001,0c2.554,0,4.956,0.995,6.763,2.801c3.728,3.728,3.728,9.795,0,13.525
				c0,0-0.001,0-0.001,0.001C68.066,71.793,65.617,72.725,63.168,72.725z M63.167,56.604c-1.753,0-3.4,0.683-4.639,1.923
				c-2.559,2.559-2.559,6.722,0,9.282c2.559,2.557,6.723,2.556,9.283,0c2.557-2.56,2.557-6.724,0-9.282
				C66.57,57.288,64.921,56.605,63.167,56.604C63.168,56.604,63.167,56.604,63.167,56.604z"/>
		</g>
	</g>
</g>
<g>
</g>
<g>
</g>
<g>
</g>
<g>
</g>
<g>
</g>
<g>
</g>
<g>
</g>
<g>
</g>
<g>
</g>
<g>
</g>
<g>
</g>
<g>
</g>
<g>
</g>
<g>
</g>
<g>
</g>
</svg>

        <svg version="1.1" id="svg-5" xmlns="http://www.w3.org/2000/svg" xmlns:xlink="http://www.w3.org/1999/xlink" x="0px" y="0px"
	 viewBox="0 0 127.318 127.318" style="enable-background:new 0 0 127.318 127.318;" xml:space="preserve">
<g>
	<g>
		<g>
			<path style="fill:#FFDDD2;" d="M120.864,67.353c0,22.873-27.14,41.422-57.205,41.422S6.454,90.226,6.454,67.353
				c0-22.877,27.14-50.289,57.205-50.289S120.864,44.476,120.864,67.353z"/>
		</g>
		<g>
			<path style="fill:#F4C4B3;" d="M120.864,67.353c0,22.873-27.14,41.422-57.205,41.422S6.454,90.226,6.454,67.353
				c0-22.877,27.14-38.641,57.205-38.641S120.864,44.476,120.864,67.353z"/>
		</g>
		<g>
			<path style="fill:#FFDDD2;" d="M75.252,80.38c0,1.543-5.191,1.82-11.592,1.82c-6.402,0-11.592-0.277-11.592-1.82
				c0-1.541,5.189-5.57,11.592-5.57C70.062,74.81,75.252,78.839,75.252,80.38z"/>
		</g>
		<g>
			<path style="fill:#E8B5A6;" d="M120.864,67.353c0,22.873-27.14,41.422-57.205,41.422S6.454,90.226,6.454,67.353
				c0-22.879,9.692,20.289,57.205,20.289S120.864,44.474,120.864,67.353z"/>
		</g>
		<g>
			<path style="fill:#33363A;" d="M63.659,110.274c-31.821,0-58.705-19.656-58.705-42.922c0-23.313,27.089-51.789,58.705-51.789
				s58.705,28.477,58.705,51.789C122.364,90.618,95.481,110.274,63.659,110.274z M63.659,18.564
				c-29.478,0-55.705,27.283-55.705,48.789c0,10.442,5.93,20.41,16.697,28.065c10.597,7.535,24.815,11.856,39.008,11.856
				s28.411-4.321,39.008-11.856c10.768-7.655,16.697-17.623,16.697-28.065C119.364,45.847,93.137,18.564,63.659,18.564z"/>
		</g>
	</g>
	<g>
		<g>
			<path style="fill:#FFDDD2;" d="M38.563,96.251c0-6.367,12.763-11.531,25.096-11.531c12.334,0,25.098,5.164,25.098,11.531
				c0,6.371-12.764,14.004-25.098,14.004C51.325,110.255,38.563,102.622,38.563,96.251z"/>
		</g>
		<g>
			<path style="fill:#F4C4B3;" d="M38.563,96.251c0-6.367,12.763-11.531,25.096-11.531c12.334,0,25.098,5.164,25.098,11.531
				c0,6.371-12.764,10.76-25.098,10.76C51.325,107.011,38.563,102.622,38.563,96.251z"/>
		</g>
		<g>
			<path style="fill:#FFDDD2;" d="M58.902,92.624c0-0.43,2.129-0.504,4.756-0.504c2.625,0,4.755,0.074,4.755,0.504
				c0,0.43-2.13,1.551-4.755,1.551C61.031,94.175,58.902,93.054,58.902,92.624z"/>
		</g>
		<g>
			<path style="fill:#E8B5A6;" d="M38.563,96.251c0-6.367,12.763-11.531,25.096-11.531c12.334,0,25.098,5.164,25.098,11.531
				c0,6.371-5.607-5.648-25.098-5.648C44.169,90.603,38.563,102.622,38.563,96.251z"/>
		</g>
		<g>
			<path style="fill:#33363A;" d="M63.658,111.755c-12.925,0-26.596-7.97-26.596-15.504c0-0.828,0.671-1.5,1.5-1.5
				s1.5,0.672,1.5,1.5c0,5.229,11.89,12.504,23.596,12.504c11.707,0,23.598-7.274,23.598-12.504c0-0.828,0.671-1.5,1.5-1.5
				s1.5,0.672,1.5,1.5C90.256,103.785,76.584,111.755,63.658,111.755z"/>
		</g>
	</g>
	<g>
		<path style="fill:#2C9DCE;" d="M45.779,74.81c0,4.922-3.988,8.906-8.908,8.906c-4.919,0-8.906-3.984-8.906-8.906
			c0-4.92,3.987-8.908,8.906-8.908C41.791,65.901,45.779,69.89,45.779,74.81z"/>
	</g>
	<g>
		<circle style="fill:#FFFFFF;" cx="32.441" cy="71.915" r="3.629"/>
	</g>
	<g>
		<path style="fill:#2C9DCE;" d="M99.354,74.81c0,4.922-3.988,8.906-8.906,8.906c-4.92,0-8.908-3.984-8.908-8.906
			c0-4.92,3.988-8.908,8.908-8.908C95.365,65.901,99.354,69.89,99.354,74.81z"/>
	</g>
	<g>
		<circle style="fill:#FFFFFF;" cx="86.017" cy="71.915" r="3.629"/>
	</g>
	<path style="fill:#33363A;" d="M36.871,64.401c-0.573,0-1.132,0.059-1.68,0.148c-0.195-0.093-0.41-0.148-0.64-0.148
		c-2.49,0-4.516-2.024-4.516-4.514c0-0.828-0.671-1.5-1.5-1.5s-1.5,0.672-1.5,1.5c0,2.772,1.513,5.192,3.754,6.494
		c-0.95,0.688-1.782,1.528-2.453,2.491c-0.12,0.162-0.225,0.332-0.326,0.508c-0.973,1.583-1.545,3.438-1.545,5.429
		c0,5.738,4.668,10.406,10.406,10.406c5.739,0,10.408-4.668,10.408-10.406C47.279,69.07,42.61,64.401,36.871,64.401z M36.871,82.216
		c-3.096,0-5.75-1.911-6.855-4.614c1.634,0.017,4.098-0.95,6.855-0.95c2.759,0,5.223,0.967,6.857,0.95
		C42.623,80.305,39.968,82.216,36.871,82.216z"/>
	<path style="fill:#33363A;" d="M96.53,66.382c2.24-1.302,3.754-3.723,3.754-6.494c0-0.828-0.671-1.5-1.5-1.5s-1.5,0.672-1.5,1.5
		c0,2.489-2.026,4.514-4.516,4.514c-0.23,0-0.445,0.056-0.64,0.148c-0.548-0.09-1.107-0.148-1.68-0.148
		c-3.537,0-6.663,1.777-8.544,4.481c-0.115,0.155-0.215,0.319-0.312,0.487c-0.978,1.586-1.552,3.445-1.552,5.441
		c0,5.738,4.669,10.406,10.408,10.406c5.738,0,10.406-4.668,10.406-10.406C100.854,71.343,99.143,68.275,96.53,66.382z
		 M90.447,82.216c-3.097,0-5.752-1.911-6.857-4.614c1.634,0.017,4.099-0.95,6.857-0.95c2.758,0,5.222,0.967,6.856,0.95
		C96.198,80.305,93.543,82.216,90.447,82.216z"/>
	<g>
		<g>
			<g>
				<path style="fill:#FFDDD2;" d="M5.254,20.661C-0.279,34.53,0.252,50.441,7.315,64.108c3.682-7.838,9.139-14.992,16.313-20.816
					c7.176-5.824,15.298-9.695,23.728-11.691C35.428,21.882,19.969,18.095,5.254,20.661z"/>
			</g>
			<g>
				<path style="fill:#F4C4B3;" d="M26.654,49.062c2.993-2.432,3.131-10.27,6.408-12.025c-7.648-7.85-17.595-13.074-28.313-15.004
					c-4.97,13.541-4.268,28.854,2.565,42.076C10.996,56.271,19.479,54.886,26.654,49.062z"/>
			</g>
			<g>
				<path style="fill:#33363A;" d="M7.316,65.608c-0.543,0-1.067-0.296-1.334-0.812C-1.173,50.95-1.946,34.66,3.861,20.106
					c0.193-0.483,0.623-0.833,1.135-0.922c15.439-2.696,31.225,1.409,43.307,11.254c0.643,0.523,0.739,1.469,0.216,2.11
					c-0.524,0.644-1.468,0.738-2.11,0.216c-11.192-9.119-25.75-13.018-40.066-10.763C1.193,35.547,2.02,50.595,8.647,63.42
					c0.38,0.736,0.092,1.641-0.644,2.021C7.783,65.555,7.547,65.608,7.316,65.608z"/>
			</g>
		</g>
		<g>
			<g>
				<path style="fill:#FFDDD2;" d="M122.065,20.661c5.533,13.869,5.002,29.779-2.061,43.447
					c-3.682-7.838-9.139-14.992-16.313-20.816c-7.176-5.824-15.299-9.695-23.729-11.691C91.89,21.882,107.349,18.095,122.065,20.661
					z"/>
			</g>
			<g>
				<path style="fill:#F4C4B3;" d="M100.664,49.062c-2.993-2.432-3.131-10.27-6.408-12.025c7.648-7.85,17.594-13.074,28.313-15.004
					c4.97,13.541,4.268,28.854-2.565,42.076C116.322,56.271,107.839,54.886,100.664,49.062z"/>
			</g>
			<g>
				<path style="fill:#33363A;" d="M120.002,65.608c-0.231,0-0.467-0.054-0.687-0.167c-0.736-0.381-1.024-1.285-0.644-2.021
					c6.627-12.825,7.454-27.873,2.305-41.419c-14.317-2.255-28.875,1.643-40.066,10.763c-0.643,0.522-1.587,0.427-2.11-0.216
					c-0.523-0.642-0.427-1.587,0.215-2.11c12.083-9.845,27.868-13.947,43.307-11.254c0.513,0.089,0.942,0.438,1.135,0.922
					c5.807,14.555,5.034,30.845-2.121,44.691C121.07,65.313,120.546,65.608,120.002,65.608z"/>
			</g>
		</g>
	</g>
	<circle style="fill:#FFFFFF;" cx="86.017" cy="71.915" r="2.129"/>
	<circle style="fill:#FFFFFF;" cx="32.441" cy="71.915" r="2.129"/>
</g>
<g>
</g>
<g>
</g>
<g>
</g>
<g>
</g>
<g>
</g>
<g>
</g>
<g>
</g>
<g>
</g>
<g>
</g>
<g>
</g>
<g>
</g>
<g>
</g>
<g>
</g>
<g>
</g>
<g>
</g>
</svg>



    </defs>
</svg>
